<svg width="293" height="80" viewBox="0 0 293 80" fill="none" xmlns="http://www.w3.org/2000/svg"><g clip-path="url(#a)"><path d="M61.2068 0H18.7368C8.38874 0 0 8.39466 0 18.75V61.25C0 71.6053 8.38874 80 18.7368 80H61.2068C71.5549 80 79.9436 71.6053 79.9436 61.25V18.75C79.9436 8.39466 71.5549 0 61.2068 0Z" fill="black" style="fill:black;fill-opacity:1;"/><path d="M61.8006 46.8125C61.5108 49.6797 60.5623 52.441 59.0292 54.8805C57.4961 57.32 55.42 59.3716 52.9631 60.875C51.1831 61.9688 49.247 62.8125 47.2484 63.375L46.2179 51.5625C47.7793 50.4375 48.8722 48.625 48.9971 46.6875L61.8006 46.7813V46.8125ZM61.8318 34.4688H48.9971C49.0284 32.3438 47.9042 30.2813 46.2179 29C44.4859 27.7391 42.3552 27.1505 40.2221 27.3438C39.2852 27.4375 38.3796 27.6563 37.5365 27.9688L31.1035 18.2813C34.9133 16.6563 39.2228 16.1563 43.4073 16.5313C47.7147 16.8317 51.835 18.4092 55.2427 21.0625C57.1777 22.7502 58.7549 24.8088 59.8813 27.1168C61.0077 29.4248 61.6603 31.9353 61.8006 34.5L61.8318 34.4688Z" fill="white" style="fill:white;fill-opacity:1;"/><path d="M47.2483 63.375C43.7133 64.3175 40.0154 64.4774 36.4122 63.8438C32.241 63.2033 28.34 61.3815 25.1702 58.5938C17.6442 51.625 16.4888 38.9062 20.1112 29.7187C21.0497 27.1543 22.5079 24.8118 24.3941 22.8382C26.2804 20.8645 28.554 19.3025 31.0723 18.25L37.5364 27.9375C36.7245 28.25 35.975 28.6875 35.2568 29.25C32.0091 31.8125 31.1972 36.4375 31.2596 40.5937C31.2909 44.5937 32.134 49.0312 35.3193 51.4688C36.7857 52.5361 38.5351 53.1451 40.347 53.2188C42.3456 53.3125 44.4066 52.875 46.0617 51.7188L46.2178 51.5938L47.2483 63.375Z" fill="#B2AEB9" style="fill:#B2AEB9;fill:color(display-p3 0.6980 0.6824 0.7255);fill-opacity:1;"/></g><path d="M282.879 56.7034C280.523 56.7034 278.492 56.1832 276.784 55.1428C275.086 54.0917 273.776 52.6267 272.853 50.7475C271.941 48.8578 271.484 46.6602 271.484 44.1547C271.484 41.6491 271.941 39.4409 272.853 37.5299C273.776 35.6083 275.06 34.1114 276.704 33.0391C278.359 31.9562 280.29 31.4148 282.497 31.4148C283.77 31.4148 285.027 31.6271 286.268 32.0518C287.509 32.4764 288.639 33.1665 289.658 34.122C290.676 35.0669 291.488 36.3196 292.092 37.8803C292.697 39.4409 293 41.3625 293 43.6451V45.2375H274.158V41.9889H289.18C289.18 40.6087 288.904 39.3772 288.353 38.2943C287.812 37.2114 287.037 36.3568 286.029 35.7304C285.032 35.104 283.855 34.7909 282.497 34.7909C281.001 34.7909 279.706 35.1624 278.614 35.9056C277.532 36.6381 276.699 37.5936 276.115 38.7721C275.532 39.9505 275.24 41.2139 275.24 42.5622V44.7279C275.24 46.5752 275.558 48.1412 276.195 49.4258C276.842 50.6998 277.738 51.6712 278.884 52.34C280.03 52.9982 281.361 53.3273 282.879 53.3273C283.865 53.3273 284.756 53.1893 285.552 52.9133C286.358 52.6267 287.053 52.202 287.637 51.6393C288.22 51.066 288.671 50.3547 288.989 49.5054L292.618 50.5246C292.236 51.7561 291.594 52.839 290.692 53.7732C289.79 54.6969 288.676 55.4188 287.35 55.939C286.024 56.4486 284.534 56.7034 282.879 56.7034Z" fill="white" style="fill:white;fill-opacity:1;"/><path d="M266.531 37.2114L263.157 38.1669C262.945 37.6042 262.632 37.0575 262.218 36.5267C261.815 35.9852 261.263 35.5393 260.563 35.189C259.863 34.8386 258.967 34.6635 257.874 34.6635C256.378 34.6635 255.131 35.0085 254.134 35.6986C253.148 36.378 252.654 37.2433 252.654 38.2943C252.654 39.2286 252.994 39.9664 253.673 40.5079C254.352 41.0493 255.413 41.5005 256.855 41.8615L260.484 42.7533C262.669 43.2841 264.298 44.0963 265.369 45.1898C266.441 46.2727 266.976 47.6687 266.976 49.378C266.976 50.7794 266.573 52.0321 265.767 53.1362C264.971 54.2404 263.857 55.1109 262.425 55.7479C260.993 56.3849 259.327 56.7034 257.428 56.7034C254.935 56.7034 252.872 56.162 251.238 55.0791C249.604 53.9962 248.57 52.4143 248.135 50.3335L251.699 49.4417C252.039 50.7581 252.681 51.7455 253.625 52.4037C254.58 53.0619 255.826 53.391 257.365 53.391C259.115 53.391 260.505 53.0195 261.534 52.2763C262.574 51.5225 263.094 50.6201 263.094 49.5691C263.094 48.7198 262.796 48.0085 262.202 47.4352C261.608 46.8513 260.696 46.416 259.465 46.1293L255.391 45.1738C253.153 44.643 251.508 43.8202 250.458 42.7055C249.418 41.5801 248.899 40.1734 248.899 38.4854C248.899 37.1053 249.286 35.8844 250.06 34.8227C250.845 33.7611 251.912 32.9277 253.259 32.3225C254.617 31.7174 256.155 31.4148 257.874 31.4148C260.293 31.4148 262.192 31.9456 263.571 33.0073C264.961 34.0689 265.947 35.4703 266.531 37.2114Z" fill="white" style="fill:white;fill-opacity:1;"/><path d="M231.159 56.7671C229.61 56.7671 228.204 56.4752 226.942 55.8912C225.679 55.2967 224.677 54.4421 223.934 53.3273C223.192 52.202 222.82 50.8431 222.82 49.2506C222.82 47.8492 223.096 46.7132 223.648 45.8427C224.199 44.9615 224.937 44.2714 225.86 43.7725C226.783 43.2735 227.801 42.9019 228.915 42.6577C230.04 42.4029 231.17 42.2012 232.305 42.0526C233.79 41.8615 234.994 41.7182 235.917 41.6226C236.851 41.5164 237.53 41.3413 237.954 41.0971C238.389 40.8529 238.607 40.4282 238.607 39.8231V39.6957C238.607 38.1245 238.177 36.9035 237.318 36.033C236.469 35.1624 235.18 34.7272 233.451 34.7272C231.658 34.7272 230.252 35.12 229.233 35.9056C228.215 36.6912 227.499 37.5299 227.085 38.4217L223.521 37.1477C224.157 35.6614 225.006 34.5042 226.067 33.6761C227.138 32.8374 228.305 32.2535 229.568 31.9244C230.841 31.5847 232.093 31.4148 233.323 31.4148C234.108 31.4148 235.01 31.5103 236.029 31.7014C237.058 31.8819 238.05 32.2588 239.004 32.8321C239.97 33.4054 240.771 34.2706 241.407 35.4278C242.044 36.5851 242.362 38.1351 242.362 40.0779V56.1938H238.607V52.8815H238.416C238.161 53.4123 237.737 53.9803 237.143 54.5854C236.548 55.1905 235.758 55.7055 234.771 56.1301C233.785 56.5548 232.581 56.7671 231.159 56.7671ZM231.732 53.391C233.217 53.391 234.469 53.0991 235.488 52.5152C236.517 51.9313 237.291 51.1775 237.811 50.2539C238.341 49.3302 238.607 48.3588 238.607 47.3396V43.8999C238.447 44.091 238.097 44.2661 237.556 44.4254C237.026 44.574 236.411 44.7067 235.71 44.8235C235.021 44.9297 234.347 45.0252 233.689 45.1101C233.042 45.1845 232.517 45.2482 232.114 45.3012C231.138 45.4286 230.225 45.6357 229.377 45.9223C228.539 46.1983 227.86 46.6177 227.34 47.1804C226.831 47.7324 226.576 48.4862 226.576 49.4417C226.576 50.7475 227.059 51.7349 228.024 52.4037C229 53.0619 230.236 53.391 231.732 53.391Z" fill="white" style="fill:white;fill-opacity:1;"/><path d="M196.643 56.1939V23.5798H200.398V35.619H200.716C200.992 35.1943 201.374 34.6529 201.862 33.9947C202.361 33.3258 203.072 32.7313 203.995 32.2111C204.928 31.6803 206.191 31.4148 207.782 31.4148C209.84 31.4148 211.654 31.9297 213.225 32.9596C214.795 33.9894 216.02 35.4491 216.901 37.3389C217.781 39.2286 218.221 41.4581 218.221 44.0273C218.221 46.6177 217.781 48.8631 216.901 50.7635C216.02 52.6532 214.8 54.1183 213.24 55.1587C211.681 56.1886 209.883 56.7035 207.846 56.7035C206.276 56.7035 205.018 56.4433 204.074 55.9231C203.13 55.3923 202.403 54.7925 201.894 54.1236C201.385 53.4442 200.992 52.8815 200.716 52.4356H200.271V56.1939H196.643ZM200.335 43.9636C200.335 45.8109 200.605 47.4405 201.146 48.8525C201.687 50.2539 202.478 51.3527 203.517 52.149C204.557 52.9346 205.83 53.3274 207.337 53.3274C208.907 53.3274 210.217 52.9133 211.267 52.0853C212.328 51.2465 213.124 50.1212 213.654 48.7092C214.195 47.2866 214.466 45.7047 214.466 43.9636C214.466 42.2437 214.201 40.6937 213.67 39.3136C213.15 37.9228 212.36 36.824 211.299 36.0171C210.249 35.1996 208.928 34.7909 207.337 34.7909C205.809 34.7909 204.525 35.1784 203.485 35.9534C202.446 36.7178 201.661 37.7901 201.13 39.1702C200.6 40.5398 200.335 42.1376 200.335 43.9636Z" fill="white" style="fill:white;fill-opacity:1;"/><path d="M189.958 31.7334V34.9183H177.291V31.7334H189.958ZM180.983 25.873H184.739V49.187C184.739 50.2486 184.892 51.0449 185.2 51.5757C185.518 52.0959 185.921 52.4463 186.41 52.6267C186.908 52.7966 187.433 52.8815 187.985 52.8815C188.399 52.8815 188.738 52.8603 189.003 52.8178C189.269 52.7648 189.481 52.7223 189.64 52.6904L190.404 56.0665C190.149 56.1621 189.794 56.2576 189.338 56.3532C188.881 56.4593 188.303 56.5124 187.603 56.5124C186.542 56.5124 185.502 56.2841 184.484 55.8276C183.476 55.3711 182.638 54.6757 181.97 53.7415C181.312 52.8072 180.983 51.6288 180.983 50.2062V25.873Z" fill="white" style="fill:white;fill-opacity:1;"/><path d="M161.27 56.7671C159.721 56.7671 158.316 56.4752 157.053 55.8912C155.791 55.2967 154.788 54.4421 154.046 53.3273C153.303 52.202 152.932 50.8431 152.932 49.2506C152.932 47.8492 153.207 46.7132 153.759 45.8427C154.311 44.9615 155.048 44.2714 155.971 43.7725C156.894 43.2735 157.913 42.9019 159.027 42.6577C160.151 42.4029 161.281 42.2012 162.416 42.0526C163.901 41.8615 165.106 41.7182 166.029 41.6226C166.962 41.5164 167.641 41.3413 168.065 41.0971C168.5 40.8529 168.718 40.4282 168.718 39.8231V39.6957C168.718 38.1245 168.288 36.9035 167.429 36.033C166.58 35.1624 165.291 34.7272 163.562 34.7272C161.769 34.7272 160.363 35.12 159.345 35.9056C158.326 36.6912 157.61 37.5299 157.196 38.4217L153.632 37.1477C154.268 35.6614 155.117 34.5042 156.178 33.6761C157.25 32.8374 158.417 32.2535 159.679 31.9244C160.952 31.5847 162.204 31.4148 163.435 31.4148C164.22 31.4148 165.121 31.5103 166.14 31.7014C167.169 31.8819 168.161 32.2588 169.116 32.8321C170.081 33.4054 170.882 34.2706 171.519 35.4278C172.155 36.5851 172.474 38.1351 172.474 40.0779V56.1938H168.718V52.8815H168.527C168.272 53.4123 167.848 53.9803 167.254 54.5854C166.66 55.1905 165.869 55.7055 164.883 56.1301C163.896 56.5548 162.692 56.7671 161.27 56.7671ZM161.843 53.391C163.329 53.391 164.58 53.0991 165.599 52.5152C166.628 51.9313 167.402 51.1775 167.922 50.2539C168.453 49.3302 168.718 48.3588 168.718 47.3396V43.8999C168.559 44.091 168.209 44.2661 167.668 44.4254C167.137 44.574 166.522 44.7067 165.822 44.8235C165.132 44.9297 164.458 45.0252 163.801 45.1101C163.153 45.1845 162.628 45.2482 162.225 45.3012C161.249 45.4286 160.337 45.6357 159.488 45.9223C158.65 46.1983 157.971 46.6177 157.451 47.1804C156.942 47.7324 156.687 48.4862 156.687 49.4417C156.687 50.7475 157.17 51.7349 158.135 52.4037C159.111 53.0619 160.347 53.391 161.843 53.391Z" fill="white" style="fill:white;fill-opacity:1;"/><path d="M131.357 41.4793V56.1939H127.602V23.5798H131.357V35.5553H131.675C132.248 34.2919 133.108 33.2887 134.253 32.5455C135.41 31.7917 136.948 31.4148 138.868 31.4148C140.534 31.4148 141.993 31.7493 143.245 32.4181C144.496 33.0763 145.467 34.0902 146.157 35.4598C146.857 36.8187 147.207 38.5492 147.207 40.6512V56.1939H143.452V40.906C143.452 38.9632 142.948 37.461 141.94 36.3993C140.942 35.327 139.558 34.7909 137.786 34.7909C136.556 34.7909 135.452 35.051 134.476 35.5712C133.511 36.0914 132.747 36.8505 132.185 37.8485C131.633 38.8464 131.357 40.0567 131.357 41.4793Z" fill="white" style="fill:white;fill-opacity:1;"/><path d="M121.733 33.7718H117.786C117.553 32.6358 117.145 31.6379 116.561 30.7779C115.988 29.918 115.288 29.1961 114.461 28.6122C113.644 28.0176 112.737 27.5718 111.739 27.2745C110.742 26.9772 109.702 26.8286 108.62 26.8286C106.647 26.8286 104.859 27.3276 103.257 28.3255C101.666 29.3235 100.398 30.7939 99.454 32.7367C98.5204 34.6795 98.0536 37.0629 98.0536 39.8869C98.0536 42.7109 98.5204 45.0944 99.454 47.0372C100.398 48.98 101.666 50.4504 103.257 51.4484C104.859 52.4463 106.647 52.9453 108.62 52.9453C109.702 52.9453 110.742 52.7967 111.739 52.4994C112.737 52.2021 113.644 51.7616 114.461 51.1776C115.288 50.5831 115.988 49.8559 116.561 48.9959C117.145 48.1254 117.553 47.1274 117.786 46.0021H121.733C121.436 47.6689 120.895 49.1605 120.11 50.477C119.325 51.7934 118.349 52.9135 117.182 53.8371C116.015 54.7501 114.705 55.4455 113.251 55.9232C111.808 56.401 110.265 56.6399 108.62 56.6399C105.841 56.6399 103.369 55.9604 101.205 54.6015C99.0403 53.2426 97.3375 51.3103 96.0963 48.8048C94.855 46.2993 94.2344 43.3267 94.2344 39.8869C94.2344 36.4472 94.855 33.4746 96.0963 30.969C97.3375 28.4635 99.0403 26.5313 101.205 25.1724C103.369 23.8135 105.841 23.134 108.62 23.134C110.265 23.134 111.808 23.3729 113.251 23.8507C114.705 24.3284 116.015 25.0291 117.182 25.9527C118.349 26.8657 119.325 27.9805 120.11 29.2969C120.895 30.6028 121.436 32.0944 121.733 33.7718Z" fill="white" style="fill:white;fill-opacity:1;"/><defs><clipPath id="a"><rect width="79.9436" height="80" fill="white" style="fill:white;fill-opacity:1;"/></clipPath></defs></svg>