<svg width="305" height="75" viewBox="0 0 305 75" fill="none" xmlns="http://www.w3.org/2000/svg"><g clip-path="url(#a)"><mask id="b" style="mask-type:luminance" maskUnits="userSpaceOnUse" x="0" y="4" width="101" height="66"><path d="M100.115 4.64111H0V69.6182H100.115V4.64111Z" fill="white" style="fill:white;fill-opacity:1;"/></mask><g mask="url(#b)"><path fill-rule="evenodd" clip-rule="evenodd" d="M64.7916 9.69791C48.7131 9.69791 36.1572 22.0465 36.1572 37.1069H31.1426C31.1426 19.1318 46.1011 4.69971 64.7916 4.69971C83.4082 4.69971 98.7776 18.7168 98.7776 36.7627C98.7776 54.7723 83.4472 69.1703 64.7922 69.1703C58.4582 69.1703 52.5175 67.5157 47.4296 64.6277L49.911 60.2847C54.2541 62.7497 59.3412 64.1717 64.7922 64.1717C80.9065 64.1717 93.7625 51.7892 93.7625 36.7627C93.7625 21.7733 80.9455 9.69791 64.7916 9.69791Z" fill="white" style="fill:white;fill-opacity:1;"/><path fill-rule="evenodd" clip-rule="evenodd" d="M33.9854 9.63936C17.8708 9.63936 5.01469 22.0222 5.01469 37.0484C5.01469 52.0783 17.5388 64.1741 33.6492 64.1741C49.7958 64.1741 62.6199 52.0442 62.6199 37.0484H67.6349C67.6349 55.0879 52.2726 69.1721 33.6492 69.1721C14.9901 69.1721 0 55.0538 0 37.0484C0 19.0389 15.3303 4.64111 33.9854 4.64111C40.2414 4.64111 46.1141 6.25492 51.1604 9.07771L48.7059 13.4365C44.3985 11.0268 39.3692 9.63936 33.9854 9.63936Z" fill="white" style="fill:white;fill-opacity:1;"/><path fill-rule="evenodd" clip-rule="evenodd" d="M62.2975 10.1357C47.5113 11.4135 36.1572 24.0118 36.1572 38.3817V64.0094C51.111 62.8415 62.6129 51.3152 62.6205 37.123L62.2975 10.1357ZM31.1426 38.3817C31.1426 20.5083 45.9795 5.03101 64.7741 5.03101H67.2514L67.6355 37.1086C67.6355 55.1618 52.2586 69.1049 33.6499 69.1049H31.1426V38.3817Z" fill="white" style="fill:white;fill-opacity:1;"/></g><path d="M129.99 56.5301C118.758 56.5301 110.768 47.8974 110.768 35.9231C110.768 24.1158 118.143 15.0933 129.934 15.0933C139.768 15.0933 145.579 20.9412 146.418 28.5157H138.371C137.645 24.5057 134.627 21.888 129.934 21.888C122.558 21.888 119.037 28.0144 119.037 35.9231C119.037 44.0545 123.284 49.9024 129.99 49.9024C134.739 49.9024 138.092 47.062 138.595 42.8849H146.529C146.306 46.3937 144.797 49.791 142.115 52.2973C139.377 54.8592 135.521 56.5301 129.99 56.5301ZM157.682 15.873V30.8549H157.85C159.917 27.8473 162.264 26.3436 166.176 26.3436C172.099 26.3436 176.066 30.7992 176.066 37.037V55.6947H168.467V38.1509C168.467 35.0876 166.679 32.9156 163.494 32.9156C160.141 32.9156 157.682 35.5889 157.682 39.4875V55.6947H150.083V15.873H157.682ZM188.071 27.1233V31.6903H188.238C189.97 28.46 191.926 26.7891 195.279 26.7891C196.117 26.7891 196.62 26.8448 197.067 27.0119V33.6396H196.899C191.926 33.1383 188.35 35.756 188.35 41.771V55.6947H180.751V27.1233H188.071ZM213.1 56.5301C204.216 56.5301 198.125 49.9581 198.125 41.4368C198.125 32.9156 204.216 26.3436 213.1 26.3436C221.985 26.3436 228.076 32.9156 228.076 41.4368C228.076 49.9581 221.985 56.5301 213.1 56.5301ZM213.1 50.7378C217.738 50.7378 220.364 47.0063 220.364 41.4368C220.364 35.8674 217.738 32.0801 213.1 32.0801C208.407 32.0801 205.836 35.8674 205.836 41.4368C205.836 47.0063 208.407 50.7378 213.1 50.7378ZM231.608 55.6947V27.1233H238.928V30.9662H239.096C240.66 28.3486 243.454 26.3436 247.422 26.3436C251.054 26.3436 253.959 28.3486 255.356 31.3561H255.468C257.424 28.2372 260.441 26.3436 264.073 26.3436C270.108 26.3436 273.517 30.2422 273.517 36.48V55.6947H265.917V37.761C265.917 34.5307 264.297 32.8599 261.503 32.8599C258.318 32.8599 256.362 35.3104 256.362 39.0977V55.6947H248.763V37.761C248.763 34.5307 247.142 32.8599 244.348 32.8599C241.275 32.8599 239.208 35.3104 239.208 39.0977V55.6947H231.608ZM296.259 55.6947C295.812 55.1377 295.532 53.801 295.365 52.5201H295.253C293.8 54.6922 291.733 56.363 286.815 56.363C280.948 56.363 276.813 53.2998 276.813 47.6189C276.813 41.3254 281.954 39.3204 288.324 38.4293C293.074 37.761 295.253 37.3711 295.253 35.199C295.253 33.1383 293.633 31.8017 290.448 31.8017C286.871 31.8017 285.139 33.0826 284.916 35.8117H278.154C278.378 30.7992 282.122 26.3993 290.501 26.3993C299.109 26.3993 302.573 30.2422 302.573 36.9256V51.4619C302.573 53.634 302.908 54.9149 303.579 55.4162V55.6947H296.259ZM288.659 51.072C293.018 51.072 295.421 48.3987 295.421 45.6139V41.3254C294.08 42.1052 292.012 42.5507 290.11 42.9963C286.145 43.8874 284.189 44.7785 284.189 47.4519C284.189 50.1252 285.977 51.072 288.659 51.072Z" fill="white" style="fill:white;fill-opacity:1;"/></g><defs><clipPath id="a"><rect width="305" height="74.2595" fill="white" style="fill:white;fill-opacity:1;"/></clipPath></defs></svg>