<svg width="280" height="47" viewBox="0 0 280 47" fill="none" xmlns="http://www.w3.org/2000/svg"><path fill-rule="evenodd" clip-rule="evenodd" d="M22.3916 26.4811C18.8867 28.0388 16.3554 28.0388 15.1871 28.0388C5.84087 28.0388 -0.000539201 21.808 0.194175 13.8247C0.194175 6.23085 6.42501 0 14.0189 0H36.4109C41.8629 0 46.1466 4.47842 46.1466 9.7357C46.1466 13.63 44.3942 16.5507 40.3052 18.6925C36.0608 20.9562 30.6857 23.1171 26.4953 24.8017L26.4952 24.8017C24.9185 25.4356 23.5095 26.002 22.3916 26.4811ZM94.4371 36.4115C92.1006 43.4212 86.0644 46.9261 79.0547 46.9261C68.9296 46.9261 62.1146 39.7216 61.9199 29.5965C61.9199 19.2767 69.1243 12.0722 78.86 12.0722C85.2856 12.0722 91.7111 14.993 94.4371 22.5868C94.8266 23.9498 94.2424 24.7287 92.8794 24.7287H90.3481C89.1799 24.7287 88.401 24.1445 87.8169 22.9762C85.8697 19.0819 82.7543 17.5242 79.0547 17.5242C73.0186 17.5242 68.9296 22.0027 68.9296 29.4018C68.9296 36.8009 72.8239 41.2793 79.2495 41.2793C82.949 41.2793 85.675 39.9164 87.8169 35.8274C88.401 34.6591 89.1799 34.0749 90.3481 34.0749H92.8794C94.2424 34.0749 94.8266 35.0485 94.4371 36.4115ZM263.643 17.1348C258.386 17.1348 254.492 20.6397 253.713 26.2864H273.379C272.795 20.8344 268.901 17.1348 263.643 17.1348ZM279.221 37.5798C276.105 44.0053 270.069 46.9261 263.838 46.9261C254.102 46.9261 246.703 40.1111 246.509 29.4018C246.509 18.6925 254.102 11.8775 263.449 11.8775C272.99 11.8775 279.805 18.1084 279.999 28.6229C279.999 29.9859 279.221 30.7648 277.858 30.7648H253.324C253.908 37.5798 257.802 41.6688 263.838 41.6688C267.343 41.6688 270.848 40.1111 272.795 36.6062C273.379 35.6326 274.158 35.0485 275.326 35.0485H277.858C279.221 35.0485 279.999 36.0221 279.221 37.5798ZM227.232 30.1806H225.09C223.922 30.1806 222.948 29.2071 222.948 28.0388V19.8608C222.948 18.6925 221.975 17.719 220.806 17.719H216.717C215.549 17.719 214.576 16.7454 214.576 15.5771V14.4088C214.576 13.2405 215.549 12.267 216.717 12.267H226.843C228.206 12.267 228.79 12.8511 228.984 14.2141L229.374 17.9137C229.374 18.3031 229.763 18.3031 229.958 18.1084C232.489 13.2405 236.773 11.4881 241.835 11.6828C243.198 11.6828 243.783 12.4617 243.783 13.8247V15.9665C243.783 17.3295 242.809 18.1084 241.641 18.1084C236.189 17.9137 230.932 19.082 229.569 28.0388C229.374 29.4018 228.595 30.1806 227.232 30.1806ZM236.968 46.3419H216.133C214.77 46.3419 213.991 45.3683 213.991 44.2001V43.0318C213.991 41.6688 214.77 40.8899 216.133 40.8899H220.806C222.169 40.8899 222.948 40.1111 222.948 38.7481V35.0485C222.948 33.6855 223.727 32.9066 225.09 32.9066H227.427C228.79 32.9066 229.569 33.6855 229.569 35.0485V38.7481C229.569 40.1111 230.347 40.8899 231.71 40.8899H236.968C238.331 40.8899 239.109 41.6688 239.109 43.0318V44.2001C239.109 45.5631 238.331 46.3419 236.968 46.3419ZM193.741 17.1348C188.484 17.1348 184.59 20.6397 183.811 26.2864H203.477C202.893 20.8344 198.998 17.1348 193.741 17.1348ZM209.513 37.5798C206.398 44.0053 200.361 46.9261 194.131 46.9261C184.2 46.9261 176.996 40.1111 176.801 29.4018C176.801 18.6925 184.395 11.8775 193.741 11.8775C203.282 11.8775 210.097 18.1084 210.292 28.6229C210.292 29.9859 209.513 30.7648 208.15 30.7648H183.616C184.2 37.5798 188.094 41.6688 194.131 41.6688C197.635 41.6688 201.14 40.1111 203.087 36.6062C203.672 35.6326 204.45 35.0485 205.619 35.0485H208.15C209.513 35.0485 210.292 36.0221 209.513 37.5798ZM133.964 29.4018C133.964 39.5269 126.76 46.9261 116.829 46.9261C113.324 46.9261 109.235 45.9525 105.731 43.0318C104.562 42.2529 104.757 40.8899 105.925 40.1111L107.288 38.7481C108.262 37.9692 109.235 38.1639 110.209 38.9428C112.74 40.6952 114.687 41.0846 116.829 41.0846C123.06 41.0846 127.149 36.4115 127.149 29.2071C127.149 22.0027 123.06 17.3295 116.829 17.3295C110.793 17.3295 106.509 22.1974 106.509 29.2071C106.509 30.5701 106.509 31.9331 107.094 33.6855C107.483 35.0485 107.094 35.8274 106.12 36.6062L104.173 37.9692C103.005 38.7481 101.836 38.5534 101.252 37.1904C100.084 34.2696 99.6944 31.7384 99.6944 29.4018C99.6944 19.4714 106.899 11.8775 116.829 11.8775C126.76 11.8775 133.964 19.2767 133.964 29.4018ZM144.673 46.3419H142.531C141.363 46.3419 140.39 45.3683 140.39 44.3948V2.53126C140.39 1.36298 141.363 0.389404 142.531 0.389404H144.673C145.842 0.389404 146.815 1.36298 146.815 2.53126V16.9401C146.815 17.3295 147.205 17.3295 147.399 17.1348C149.736 14.0194 152.851 11.8775 158.109 11.8775C165.897 11.8775 170.57 16.9401 170.57 25.8969V44.2001C170.57 45.3683 169.597 46.3419 168.428 46.3419H166.092C164.924 46.3419 163.95 45.3683 163.95 44.2001V27.0652C163.95 20.8344 161.029 17.5242 155.967 17.5242C150.515 17.5242 146.815 21.4185 146.815 28.2335V44.2001C146.815 45.3683 145.842 46.3419 144.673 46.3419ZM18.8848 37.5797C18.8848 33.8802 21.2213 30.3753 24.7262 29.0123L31.7359 26.0916C38.9403 23.1709 46.7288 28.4282 46.7288 36.022C46.7288 42.0581 41.861 46.926 35.8249 46.926H28.231C23.1685 46.926 18.8848 42.837 18.8848 37.5797ZM0 37.7744C0 33.296 3.50485 29.7911 7.98327 29.7911C12.4617 29.7911 16.1612 33.4907 15.9665 37.7744V38.748C15.9665 43.2264 12.4617 46.7313 7.98327 46.7313C3.50485 46.7313 0 43.2264 0 38.748V37.7744Z" fill="white" style="fill:white;fill-opacity:1;"/></svg>