<svg width="159" height="58" viewBox="0 0 159 58" fill="none" xmlns="http://www.w3.org/2000/svg"><g clip-path="url(#a)"><mask id="b" style="mask-type:luminance" maskUnits="userSpaceOnUse" x="0" y="0" width="159" height="58"><path d="M0 0H158.943V57.962H0V0Z" fill="white" style="fill:white;fill-opacity:1;"/></mask><g mask="url(#b)"><path d="M95.1901 0.0947462C84.2088 0.0947462 75.2865 8.9754 75.2865 19.9479C75.2865 30.9203 84.1897 39.801 95.1901 39.801C106.19 39.801 115.094 30.9203 115.094 19.9479C115.075 8.99442 106.171 0.113763 95.1901 0.0947462ZM95.1901 32.3465C88.3268 32.3465 82.7599 26.7938 82.7599 19.9479C82.7599 13.102 88.3268 7.54917 95.1901 7.54917C102.053 7.54917 107.62 13.102 107.62 19.9479C107.62 26.7938 102.053 32.3465 95.1901 32.3465ZM67.7178 0.170812C67.0314 0.0947462 66.3642 0.0567135 65.6778 0.0567135C65.3347 0.0567135 65.0106 0.0567135 64.6865 0.0757298C64.3624 0.0947462 64.0192 0.113763 63.6951 0.132779C62.3606 0.227861 61.026 0.456058 59.7296 0.817369C57.0796 1.52098 54.5822 2.77606 52.4278 4.46852C50.2163 6.21802 48.4624 8.46196 47.2613 11.0102C46.6703 12.2843 46.2318 13.6344 45.9458 15.0036C45.8124 15.6882 45.7171 16.3728 45.6408 17.0574C45.6217 17.3997 45.5836 17.742 45.5836 18.0843L45.5645 18.5977V19.0731L45.6027 32.3656L45.6408 39.0023H53.0951L53.1332 32.3656L53.1714 19.0731V18.3695C53.1714 18.1603 53.2095 17.9511 53.2095 17.742C53.2476 17.3236 53.3239 16.9243 53.4001 16.5059C53.5717 15.7072 53.8196 14.9275 54.1627 14.1859C54.8491 12.7026 55.8786 11.4095 57.1559 10.3826C58.4904 9.3177 60.0347 8.53802 61.6742 8.10065C62.5131 7.87245 63.3901 7.72032 64.2671 7.64425C64.4958 7.62524 64.7055 7.60622 64.9343 7.60622C65.1631 7.60622 65.3919 7.58721 65.6016 7.58721C66.021 7.58721 66.4595 7.60622 66.8789 7.64425C68.5757 7.8154 70.2153 8.32885 71.7214 9.16557L75.439 2.71901C73.075 1.34983 70.444 0.475074 67.7178 0.170812ZM20.075 -0.000335726C9.09367 -0.0954177 0.095112 8.70917 -0.000211716 19.6626C-0.0955355 30.6161 8.73144 39.5918 19.7127 39.6869H26.6142V32.2515H20.075C13.2117 32.3275 7.56849 26.8508 7.49223 19.9859C7.41598 13.121 12.9066 7.51114 19.789 7.43507H20.075C26.9383 7.43507 32.5052 12.9879 32.5433 19.8338V38.1085C32.5433 44.8974 26.9955 50.4311 20.2084 50.5072C16.9483 50.4882 13.8408 49.1761 11.553 46.8751L6.27209 52.1426C9.93252 55.8128 14.8894 57.9046 20.075 57.9426H20.3419C31.1897 57.7905 39.9023 49.0049 39.9595 38.1846V19.3393C39.6926 8.59507 30.8656 0.0186807 20.075 -0.000335726ZM139.115 0.0947462C128.134 0.0947462 119.212 8.9754 119.231 19.9479C119.231 30.9013 128.134 39.782 139.115 39.782H145.921V32.3465H139.115C132.252 32.3465 126.685 26.7938 126.685 19.9479C126.685 13.102 132.252 7.54917 139.115 7.54917C145.559 7.54917 150.935 12.4744 151.507 18.8829H151.488V56.9918H158.943V19.9479C158.943 8.99442 150.077 0.0947462 139.115 0.0947462Z" fill="white" style="fill:white;fill-opacity:1;"/></g></g><defs><clipPath id="a"><rect width="158.943" height="57.962" fill="white" style="fill:white;fill-opacity:1;"/></clipPath></defs></svg>