<svg width="280" height="64" viewBox="0 0 280 64" fill="none" xmlns="http://www.w3.org/2000/svg"><path fill-rule="evenodd" clip-rule="evenodd" d="M32.276 0C28.8544 0 26.3101 2.62948 26.3101 5.95929C26.3101 9.28909 28.8544 11.9186 32.276 11.9186C35.6537 11.9186 38.2418 9.28909 38.2418 5.95929C38.2376 2.62507 35.6537 0 32.276 0ZM15.7828 19.8012C13.6751 22.4306 10.0374 22.783 7.4491 20.7217C4.90488 18.6604 4.42424 15.0266 6.52752 12.3972C8.63078 9.76766 12.3171 9.41533 14.8613 11.4766C17.4055 13.5379 17.8861 17.1717 15.7828 19.8012ZM0.171018 40.2142C-0.618265 36.9284 1.40125 33.8627 4.64656 33.1184C7.84778 32.3739 11.0049 34.2989 11.7501 37.5889C12.4953 40.8747 10.5198 43.9404 7.27455 44.6846C4.07333 45.4291 0.916203 43.4999 0.171018 40.2142ZM23.1528 51.8696C20.1279 50.4248 16.6622 51.6495 15.2159 54.6312C13.7696 57.6087 14.9513 61.0706 17.9805 62.5594C21.0054 64.0042 24.4712 62.7795 25.9175 59.7978C27.3196 56.7763 26.182 53.3144 23.1528 51.8696ZM38.6325 59.7967C37.1864 56.8192 38.3724 53.3133 41.3973 51.8686C44.4266 50.3798 47.888 51.6527 49.3341 54.6302C50.7805 57.6077 49.5942 61.1135 46.5696 62.5583C43.5005 64.0471 40.0788 62.7742 38.6325 59.7967ZM59.9103 33.1181C56.6651 32.3739 53.552 34.3031 52.807 37.5886C52.0617 40.8744 54.0372 43.984 57.2824 44.6843C60.5277 45.4288 63.6408 43.4996 64.386 40.2138C65.1311 36.9281 63.1558 33.8624 59.9103 33.1181ZM58.8572 12.3992C60.9604 15.0287 60.5239 18.6625 57.9355 20.7238C55.3474 22.7807 51.7096 22.4327 49.602 19.8032C47.4985 17.1737 47.9352 13.54 50.5234 11.4787C53.1118 9.42179 56.754 9.76974 58.8572 12.3992ZM110.396 19.0781C104.21 19.0781 99.527 21.3332 97.2959 25.1607V6.8291H89.4341V54.6841H97.2959V37.1587C97.2959 33.7979 98.2837 31.076 100.259 28.9486C102.234 26.8211 104.726 25.7597 107.861 25.7597C114.175 25.7597 116.927 29.7149 116.927 37.1587V54.6841H124.789V37.1587C124.789 31.2874 123.673 26.7816 121.393 23.716C119.118 20.6505 115.467 19.0781 110.396 19.0781ZM159.204 37.1209C159.204 40.5256 158.344 43.2873 156.625 45.3749C154.905 47.4584 152.458 48.4801 149.323 48.4801C143.436 48.4801 140.989 44.5646 140.989 37.1209V19.5954H133.083V37.1651C133.083 42.9084 133.987 47.1633 136.09 50.3522C138.193 53.585 141.76 55.2015 146.699 55.2015C152.67 55.2454 156.836 53.2017 159.2 49.1628L159.544 54.6905H167.062V19.5998H159.2V37.1209H159.204ZM208.093 26.6055C210.368 21.7122 215.223 19.0343 222.097 19.0343C226.952 19.0783 230.471 20.7388 232.49 23.9277C234.466 27.1563 235.325 31.3714 235.325 37.1545V54.6799H227.464V37.1545C227.464 29.7107 225.061 25.7556 219.302 25.7556C216.251 25.7556 213.847 26.7775 212.172 28.8607C210.452 30.9441 209.637 33.7102 209.637 37.1545V54.6799H201.73V37.1545C201.73 29.7107 199.323 25.7556 193.569 25.7556C190.522 25.7556 188.114 26.7775 186.439 28.8607C184.724 30.9441 183.863 33.7102 183.863 37.1545V54.6799H176.002V19.5893H183.436L183.78 25.1169C185.927 20.9062 189.878 19.0343 196.28 19.0343C202.251 19.0343 206.202 21.5449 208.093 26.6055ZM261.268 19.0764C256.114 19.0764 251.387 20.8646 247.908 23.9698C244.429 27.0751 242.237 31.7967 242.237 37.157C242.237 42.5173 244.429 47.2389 247.908 50.2999C251.387 53.4051 256.158 55.1934 261.268 55.1934C264.92 55.1934 268.272 54.2994 271.323 52.555C274.374 50.8109 276.693 48.4281 278.241 45.4111L271.494 42.2222C269.601 46.4328 265.868 48.9433 261.229 48.9433C258.565 48.9433 256.202 48.0932 254.183 46.3931C252.163 44.6929 250.875 42.4776 250.359 39.7557H279.96C280.303 33.5893 278.412 28.229 275.061 24.6965C271.704 21.2038 266.766 19.0764 261.268 19.0764ZM250.355 34.5186C250.871 31.7525 252.114 29.5416 254.094 27.8415C256.07 26.1809 258.433 25.3308 261.268 25.3308C264.104 25.3308 266.51 26.1809 268.487 27.8415C270.462 29.5019 271.71 31.7525 272.226 34.5186H250.355Z" fill="white" style="fill:white;fill-opacity:1;"/></svg>