<svg width="300" height="63" viewBox="0 0 300 63" fill="none" xmlns="http://www.w3.org/2000/svg"><g clip-path="url(#a)"><path d="M0 48.5954V2.22332H8.25397V41.2902H28.8889V48.2778H0V48.5954ZM43.1746 49.2307C40.9524 49.2307 39.0476 48.913 37.1429 47.9602C35.5556 47.0073 33.9683 46.0545 33.0159 44.4664C32.0635 42.8783 31.4286 40.9726 31.4286 38.7493C31.4286 36.8436 31.746 35.2555 32.381 33.985C33.0159 32.7146 33.9683 31.7617 35.2381 30.8089C36.5079 30.1736 37.7778 29.5384 39.3651 29.2208C40.9524 28.9032 42.5397 28.5855 44.127 28.2679C46.0317 27.9503 47.9365 27.9503 49.2064 27.6327C50.4762 27.3151 51.4286 27.3151 52.0635 26.6798C52.6984 26.3622 53.0159 25.727 53.0159 25.0918C53.0159 23.5037 52.381 22.2332 51.4286 21.2803C50.4762 20.3275 48.8889 20.0099 46.9841 20.0099C45.0794 20.0099 43.4921 20.3275 42.2222 21.2803C40.9524 22.2332 40.3175 23.1861 40 24.4565L32.381 23.5037C33.0159 21.2803 33.9683 19.6923 35.2381 18.1042C36.5079 16.8337 38.4127 15.5632 40.3175 14.928C42.2222 14.2928 44.4445 13.9752 46.9841 13.9752C48.5714 13.9752 50.1587 14.2928 52.0635 14.6104C53.6508 14.928 55.2381 15.5632 56.5079 16.5161C57.7778 17.4689 59.0476 18.7394 59.6825 20.0099C60.6349 21.598 60.9524 23.5037 60.9524 25.727V48.913H53.0159V44.1488H52.6984C52.0635 45.1016 51.4286 46.0545 50.4762 47.0073C49.5238 47.9602 48.5714 48.5954 46.9841 48.913C46.6667 48.913 45.0794 49.2307 43.1746 49.2307ZM45.3968 43.1959C46.9841 43.1959 48.5714 42.8783 49.5238 42.2431C50.7937 41.6078 51.746 40.655 52.381 39.7021C53.0159 38.7493 53.3333 37.4788 53.3333 36.2084V32.0793C53.0159 32.3969 52.6984 32.3969 52.0635 32.7146C51.4286 33.0322 50.7937 33.0322 50.1587 33.0322C49.5238 33.0322 48.5714 33.3498 47.9365 33.3498C47.3016 33.3498 46.6667 33.6674 46.0317 33.6674C44.7619 33.985 43.8095 33.985 42.8571 34.6203C41.9048 34.9379 41.2698 35.5731 40.6349 36.2084C40 36.8436 39.6825 37.7964 39.6825 38.7493C39.6825 40.3374 40.3175 41.2902 41.2698 42.2431C42.2222 42.8783 43.4921 43.1959 45.3968 43.1959ZM75.2381 28.2679V48.5954H66.9841V13.6575H74.9206V19.6923H75.2381C76.1905 17.7866 77.4603 16.1985 79.0476 14.928C80.9524 13.6575 82.8571 13.3399 85.7143 13.3399C88.254 13.3399 90.1587 13.9752 92.0635 14.928C93.9683 15.8809 95.2381 17.4689 96.1905 19.3746C97.1429 21.2803 97.7778 23.8213 97.7778 26.3622V48.2778H89.2064V27.6327C89.2064 25.4094 88.5714 23.5037 87.6191 22.2332C86.3492 20.9627 84.7619 20.3275 82.5397 20.3275C81.2699 20.3275 80 20.6451 78.7302 21.2803C77.7778 21.9156 76.8254 22.8684 76.1905 23.8213C75.5556 25.0918 75.2381 26.3622 75.2381 28.2679ZM118.413 62.253C115.556 62.253 113.016 61.9353 110.794 60.9825C108.571 60.3473 106.984 59.0768 105.714 57.8063C104.444 56.5359 103.492 54.9478 103.175 53.3597L110.476 51.454C110.794 52.0892 111.429 52.7244 112.063 53.3597C112.698 53.9949 113.651 54.6301 114.603 54.9478C115.556 55.2654 117.143 55.583 118.73 55.583C120.952 55.583 122.857 54.9478 124.444 53.9949C126.032 52.7244 126.667 51.1364 126.667 48.5954V41.9255H126.349C126.032 42.8783 125.397 43.5135 124.444 44.4664C123.492 45.4193 122.54 46.0545 121.27 46.6897C120 47.325 118.413 47.6426 116.19 47.6426C113.651 47.6426 111.111 47.0073 108.889 45.7369C106.667 44.4664 105.079 42.5607 103.81 40.0198C102.54 37.4788 101.905 34.3027 101.905 30.4912C101.905 26.6798 102.54 23.5037 103.81 20.9627C105.079 18.4218 106.667 16.1985 108.889 14.928C111.111 13.6575 113.333 13.0223 116.19 13.0223C118.095 13.0223 120 13.3399 121.27 13.9752C122.54 14.6104 123.492 15.5632 124.444 16.5161C125.079 17.4689 125.714 18.4218 126.349 19.057H126.667V13.6575H134.603V48.913C134.603 51.7716 133.968 54.3125 132.381 56.2182C131.111 58.1239 128.889 59.712 126.667 60.6649C124.127 61.6177 121.27 62.253 118.413 62.253ZM118.413 41.6078C120 41.6078 121.587 41.2902 122.857 40.3374C124.127 39.3845 125.079 38.4317 125.714 36.8436C126.349 35.2555 126.667 33.3498 126.667 31.1265C126.667 28.9032 126.349 26.9975 125.714 25.4094C125.079 23.5037 124.127 22.2332 122.857 21.598C121.587 20.6451 120.317 20.3275 118.413 20.3275C116.508 20.3275 114.921 20.6451 113.968 21.598C112.698 22.5508 111.746 23.8213 111.111 25.4094C110.476 26.9975 110.159 28.9032 110.159 31.1265C110.159 33.3498 110.476 35.2555 111.111 36.8436C111.746 38.4317 112.698 39.7021 113.968 40.655C114.921 40.9726 116.508 41.6078 118.413 41.6078ZM180.317 17.7866H171.746C171.429 16.5161 171.111 15.2456 170.476 13.9752C169.841 13.0223 168.889 12.0695 167.937 11.1166C166.984 10.4814 166.032 9.84613 164.762 9.52851C163.492 9.2109 162.222 8.89328 160.952 8.89328C158.413 8.89328 156.19 9.52851 154.286 10.799C152.381 12.0695 150.794 13.9752 149.841 16.1985C148.571 19.057 147.937 21.9156 147.937 25.4094C147.937 28.9032 148.571 32.0793 149.524 34.3027C150.794 36.8436 152.064 38.4317 153.968 39.7021C155.873 40.9726 158.095 41.6078 160.635 41.6078C161.905 41.6078 163.175 41.2902 164.444 40.9726C165.714 40.655 166.667 40.0198 167.619 39.3845C168.571 38.7493 169.524 37.7964 170.159 36.8436C170.794 35.8907 171.429 34.6203 171.429 33.3498H180C179.683 35.5731 179.048 37.4788 178.095 39.3845C177.143 41.2902 175.556 42.8783 173.968 44.4664C172.381 46.0545 170.159 47.0073 167.937 47.9602C165.714 48.913 163.175 49.2307 160.317 49.2307C156.19 49.2307 152.698 48.2778 149.524 46.3721C146.349 44.4664 143.81 41.9255 141.905 38.1141C140 34.6203 139.048 30.1736 139.048 25.4094C139.048 20.3275 140 16.1985 141.905 12.7047C143.81 9.2109 146.349 6.35234 149.524 4.44664C152.698 2.54094 156.19 1.58809 160.317 1.58809C162.857 1.58809 165.397 1.9057 167.619 2.54094C169.841 3.17617 171.746 4.44664 173.651 5.71711C175.238 6.98758 176.825 8.89328 177.778 10.799C179.048 13.0223 180 15.2456 180.317 17.7866ZM193.333 28.2679V48.5954H185.079V2.22332H193.016V19.6923H193.333C194.286 17.7866 195.556 16.1985 197.143 14.928C198.73 13.6575 200.952 13.3399 203.81 13.3399C206.349 13.3399 208.254 13.9752 210.159 14.928C212.064 15.8809 213.333 17.4689 214.286 19.3746C215.238 21.2803 215.873 23.8213 215.873 26.3622V48.2778H207.619V27.6327C207.619 25.4094 206.984 23.5037 205.714 22.2332C204.444 20.9627 202.857 20.3275 200.635 20.3275C199.048 20.3275 197.778 20.6451 196.825 21.2803C195.556 21.9156 194.921 22.8684 194.286 23.8213C193.651 25.0918 193.333 26.3622 193.333 28.2679ZM231.429 49.2307C229.206 49.2307 227.302 48.913 225.397 47.9602C223.81 47.0073 222.222 46.0545 221.27 44.4664C220.317 42.8783 219.683 40.9726 219.683 38.7493C219.683 36.8436 220 35.2555 220.635 33.985C221.27 32.7146 222.222 31.7617 223.492 30.8089C224.762 30.1736 226.032 29.5384 227.619 29.2208C229.206 28.9032 230.794 28.5855 232.381 28.2679C234.286 27.9503 236.191 27.9503 237.46 27.6327C238.73 27.3151 239.683 27.3151 240.317 26.6798C241.27 26.3622 241.587 25.727 241.587 25.0918C241.587 23.5037 240.952 22.2332 240 21.2803C239.048 20.3275 237.46 20.0099 235.556 20.0099C233.651 20.0099 232.064 20.3275 230.794 21.2803C229.524 22.2332 228.889 23.1861 228.571 24.4565L220.952 23.5037C221.587 20.9627 222.54 19.057 223.81 17.7866C225.079 16.5161 226.984 15.2456 228.889 14.6104C230.794 13.9752 233.016 13.6575 235.556 13.6575C237.143 13.6575 238.73 13.9752 240.635 14.2928C242.222 14.6104 243.81 15.2456 245.079 16.1985C246.349 17.1513 247.619 18.4218 248.254 19.6923C249.206 21.2803 249.524 23.1861 249.524 25.4094V48.5954H241.587V43.8312C240.952 44.784 240.317 45.7369 239.365 46.6897C238.413 47.6426 237.46 48.2778 235.873 48.5954C234.921 48.913 233.333 49.2307 231.429 49.2307ZM233.651 43.1959C235.238 43.1959 236.825 42.8783 237.778 42.2431C239.048 41.6078 240 40.655 240.635 39.7021C241.27 38.7493 241.587 37.4788 241.587 36.2084V32.0793C241.27 32.3969 240.952 32.3969 240.317 32.7146C239.683 33.0322 239.048 33.0322 238.413 33.0322C237.778 33.0322 236.825 33.3498 236.191 33.3498C235.556 33.3498 234.921 33.6674 234.286 33.6674C233.016 33.985 232.064 33.985 231.111 34.6203C230.159 34.9379 229.524 35.5731 228.889 36.2084C228.254 36.8436 227.937 37.7964 227.937 38.7493C227.937 40.3374 228.571 41.2902 229.524 42.2431C230.476 42.8783 231.746 43.1959 233.651 43.1959ZM255.238 48.5954V13.6575H263.492V48.2778H255.238V48.5954ZM259.365 8.89328C258.095 8.89328 256.825 8.57566 255.873 7.62281C254.921 6.66996 254.603 5.71711 254.603 4.44664C254.603 3.17617 254.921 2.22332 255.873 1.27047C257.143 0.317617 258.095 0 259.365 0C260.635 0 261.905 0.317617 262.857 1.27047C263.81 2.22332 264.127 3.17617 264.127 4.44664C264.127 5.71711 263.81 6.66996 262.857 7.62281C261.905 8.57566 260.635 8.89328 259.365 8.89328ZM277.46 28.2679V48.5954H269.206V13.6575H277.143V19.6923H277.46C278.413 17.7866 279.683 16.1985 281.27 14.928C283.175 13.6575 285.079 13.3399 287.937 13.3399C290.476 13.3399 292.381 13.9752 294.286 14.928C296.19 15.8809 297.46 17.4689 298.413 19.3746C299.365 21.2803 300 23.8213 300 26.3622V48.2778H291.746V27.6327C291.746 25.4094 291.111 23.5037 289.841 22.2332C288.571 20.9627 286.984 20.3275 284.762 20.3275C283.492 20.3275 282.222 20.6451 280.952 21.2803C280 21.9156 279.048 22.8684 278.413 23.8213C277.778 25.0918 277.46 26.3622 277.46 28.2679Z" fill="white" style="fill:white;fill-opacity:1;"/></g><defs><clipPath id="a"><rect width="300" height="62.253" fill="white" style="fill:white;fill-opacity:1;"/></clipPath></defs></svg>