<svg width="280" height="61" viewBox="0 0 280 61" fill="none" xmlns="http://www.w3.org/2000/svg"><path fill-rule="evenodd" clip-rule="evenodd" d="M23.1529 0H47.0518L56.7743 17.1298L66.6087 0.0964355L90.6189 0.16885L113.613 40.1794L101.663 60.877L78.0103 60.7024L56.655 24.2111L35.8453 60.7484H11.9423L0 39.9189L23.1529 0ZM24.1306 5.19258L3.98359 39.929L12.9371 55.545L32.8576 20.5685L24.1306 5.19258ZM35.8453 22.2956L15.9104 57.2973H33.8394L53.7744 22.2956H35.8453ZM53.7795 18.8445H35.8471L27.1102 3.45094H45.0426L53.7795 18.8445ZM108.627 38.4299L88.6181 3.61379L70.6176 3.55946L90.9481 38.2996L108.627 38.4299ZM87.9585 40.0236L67.6133 5.25835L58.6486 20.7853L78.9939 55.5508L87.9585 40.0236ZM81.9801 57.2802L90.9462 41.7506L108.646 41.881L99.6796 57.4105L81.9801 57.2802ZM155.534 38.4591L162.284 10.7549H173.346V46.8282H167.575V15.9975H166.231L158.34 46.8282H151.799L144.137 15.9975H142.757V46.8282H136.985V10.7549H148.095L154.705 38.4591H155.534ZM186.425 46.2509C188.157 46.9564 190.002 47.3091 191.957 47.3091C193.912 47.3091 195.74 46.9564 197.441 46.2509C199.172 45.5134 200.678 44.5194 201.961 43.2688C203.276 41.9862 204.302 40.4951 205.039 38.7958C205.777 37.0963 206.145 35.2847 206.145 33.3608C206.145 31.4369 205.777 29.6413 205.039 27.9739C204.302 26.2744 203.276 24.7833 201.961 23.5007C200.678 22.2181 199.172 21.2241 197.441 20.5186C195.74 19.7812 193.912 19.4124 191.957 19.4124C190.002 19.4124 188.157 19.7812 186.425 20.5186C184.694 21.2241 183.171 22.2181 181.856 23.5007C180.574 24.7833 179.563 26.2744 178.826 27.9739C178.088 29.6413 177.72 31.4369 177.72 33.3608C177.72 35.2847 178.088 37.0963 178.826 38.7958C179.563 40.4951 180.574 41.9862 181.856 43.2688C183.171 44.5194 184.694 45.5134 186.425 46.2509ZM196.044 40.8639C194.794 41.5695 193.431 41.9221 191.957 41.9221C190.45 41.9221 189.071 41.5695 187.82 40.8639C186.602 40.1265 185.608 39.1164 184.838 37.8338C184.101 36.5512 183.732 35.0601 183.732 33.3608C183.732 31.6613 184.101 30.1703 184.838 28.8877C185.608 27.605 186.602 26.6111 187.82 25.9056C189.071 25.1681 190.45 24.7993 191.957 24.7993C193.431 24.7993 194.794 25.1681 196.044 25.9056C197.296 26.6111 198.273 27.605 198.98 28.8877C199.717 30.1703 200.086 31.6613 200.086 33.3608C200.086 35.0601 199.717 36.5512 198.98 37.8338C198.273 39.1164 197.296 40.1265 196.044 40.8639ZM235.985 46.8282H230.214V42.7474C230.075 42.9249 229.93 43.0987 229.781 43.2688C228.69 44.5195 227.376 45.5135 225.836 46.2509C224.297 46.9564 222.614 47.3091 220.788 47.3091C218.992 47.3091 217.324 46.9564 215.785 46.2509C214.278 45.5135 212.931 44.5195 211.745 43.2688C210.59 41.9862 209.676 40.5113 209.003 38.8439C208.33 37.1444 207.992 35.3328 207.992 33.4089C207.992 31.4529 208.33 29.6413 209.003 27.9739C209.676 26.2744 210.59 24.7834 211.745 23.5008C212.931 22.2182 214.278 21.2242 215.785 20.5187C217.324 19.7812 218.992 19.4124 220.788 19.4124C222.614 19.4124 224.297 19.7812 225.836 20.5187C227.376 21.2242 228.69 22.2182 229.781 23.5008C229.93 23.6709 230.075 23.8447 230.214 24.0221V10.7549H235.985V46.8282ZM229.109 28.8877C229.846 30.1382 230.214 31.6292 230.214 33.3608C230.214 35.0602 229.846 36.5673 229.109 37.8819C228.402 39.1645 227.425 40.1586 226.175 40.864C224.955 41.5695 223.592 41.9222 222.086 41.9222C220.611 41.9222 219.264 41.5695 218.046 40.864C216.826 40.1586 215.849 39.1645 215.112 37.8819C214.405 36.5673 214.054 35.0763 214.054 33.4089C214.054 31.6452 214.405 30.1382 215.112 28.8877C215.849 27.6051 216.826 26.6111 218.046 25.9056C219.264 25.1681 220.611 24.7993 222.086 24.7993C223.592 24.7993 224.955 25.1681 226.175 25.9056C227.425 26.6111 228.402 27.6051 229.109 28.8877ZM262.224 46.8281H267.997V19.8935H262.224V24.0204C262.085 23.8435 261.941 23.6703 261.793 23.5007C260.702 22.2181 259.387 21.2241 257.848 20.5186C256.309 19.7812 254.626 19.4124 252.798 19.4124C251.002 19.4124 249.336 19.7812 247.796 20.5186C246.29 21.2241 244.942 22.2181 243.755 23.5007C242.601 24.7833 241.687 26.2744 241.015 27.9739C240.34 29.6413 240.004 31.4529 240.004 33.4089C240.004 35.3328 240.34 37.1444 241.015 38.8439C241.687 40.5113 242.601 41.9862 243.755 43.2688C244.942 44.5194 246.29 45.5134 247.796 46.2509C249.336 46.9564 251.002 47.3091 252.798 47.3091C254.626 47.3091 256.309 46.9564 257.848 46.2509C259.387 45.5134 260.702 44.5194 261.793 43.2688C261.941 43.0992 262.085 42.926 262.224 42.7491V46.8281ZM262.224 33.3608C262.224 31.6292 261.856 30.1381 261.118 28.8877C260.413 27.605 259.435 26.6111 258.185 25.9056C256.966 25.1681 255.604 24.7993 254.097 24.7993C252.621 24.7993 251.276 25.1681 250.056 25.9056C248.838 26.6111 247.859 27.605 247.122 28.8877C246.417 30.1381 246.063 31.6452 246.063 33.4089C246.063 35.0763 246.417 36.5673 247.122 37.8818C247.859 39.1644 248.838 40.1586 250.056 40.8639C251.276 41.5695 252.621 41.9221 254.097 41.9221C255.604 41.9221 256.966 41.5695 258.185 40.8639C259.435 40.1586 260.413 39.1644 261.118 37.8818C261.856 36.5673 262.224 35.0601 262.224 33.3608ZM280 46.8282H274.228V10.7549H280V46.8282Z" fill="white" style="fill:white;fill-opacity:1;"/></svg>