<svg width="231" height="62" viewBox="0 0 231 62" fill="none" xmlns="http://www.w3.org/2000/svg"><path d="M24.4838 0C11.0177 0 0 11.0374 0 24.5276C0 38.0177 11.0177 49.0551 24.4838 49.0551C37.9499 49.0551 48.9677 38.0858 48.9677 24.5276C48.9677 10.9691 38.0179 0 24.4838 0ZM24.4838 40.266C16.1186 40.266 9.38533 33.3848 9.38533 24.5276C9.38533 15.6704 16.1186 8.78891 24.4838 8.78891C32.8491 8.78891 39.5821 15.6704 39.5821 24.5276C39.5821 33.3848 32.8491 40.266 24.4838 40.266Z" fill="white" style="fill:white;fill-opacity:1;"/><path d="M73.7248 13.6261C69.3042 13.6261 65.0195 15.3976 62.775 18.3954V14.3074H53.9336V62H62.775V44.7626C65.0195 47.556 69.168 49.0549 73.7248 49.0549C83.2462 49.0549 90.7275 41.5603 90.7275 31.3405C90.7275 21.1208 83.2462 13.6261 73.7248 13.6261ZM72.2285 41.356C67.1958 41.356 62.707 37.4043 62.707 31.3405C62.707 25.2767 67.1958 21.325 72.2285 21.325C77.2614 21.325 81.75 25.2767 81.75 31.3405C81.75 37.4043 77.2614 41.356 72.2285 41.356Z" fill="white" style="fill:white;fill-opacity:1;"/><path d="M111.536 13.6261C101.879 13.6261 94.2617 21.1888 94.2617 31.3405C94.2617 41.4922 100.927 49.0549 111.808 49.0549C120.718 49.0549 126.431 43.6724 128.199 37.6086H119.562C118.473 40.1296 115.413 41.9009 111.74 41.9009C107.184 41.9009 103.715 38.6988 102.899 34.1339H128.607V30.6592C128.607 21.3931 122.146 13.6261 111.536 13.6261ZM102.967 27.8658C103.919 23.5735 107.456 20.7799 111.74 20.7799C116.297 20.7799 119.766 23.7778 120.174 27.8658H102.967Z" fill="white" style="fill:white;fill-opacity:1;"/><path d="M152.139 13.6261C148.194 13.6261 144.045 15.3976 142.141 18.3271V14.3074H133.3V48.3734H142.141V30.046C142.141 24.7316 144.998 21.2569 149.622 21.2569C153.907 21.2569 156.219 24.5273 156.219 29.0922V48.3734H165.06V27.6614C165.06 19.2129 159.891 13.6261 152.139 13.6261Z" fill="white" style="fill:white;fill-opacity:1;"/><path d="M187.705 0.68219L168.458 48.3748H177.912L181.992 37.9506H203.892L207.972 48.3748H217.561L198.451 0.68219H187.705ZM185.052 30.0472L192.942 10.0845L200.762 30.0472H185.052Z" fill="white" style="fill:white;fill-opacity:1;"/><path d="M230.145 0.68219H221.168V48.3748H230.145V0.68219Z" fill="white" style="fill:white;fill-opacity:1;"/></svg>