<svg width="161" height="54" viewBox="0 0 161 54" fill="none" xmlns="http://www.w3.org/2000/svg"><path d="M54.3321 0H62.0215V8.38512H54.3321V0ZM54.3321 12.0118H62.0215V51.6953H54.3321V12.0118ZM68.5989 0H76.2882V27.4644L102.825 6.0264H113.477L85.6134 28.0994L114.231 51.6953H103.072L76.284 29.8728V51.6931H68.5924V0H68.5989ZM0 51.6974V0H27.6126C46.2156 0 48.2206 11.6446 48.2206 16.6493C48.2206 21.654 46.2156 33.3029 27.6061 33.3029H7.68936V51.6996L0 51.6974ZM7.68936 25.6262H26.2237C35.8579 25.6262 39.9666 22.9414 39.9666 16.6493C39.9666 10.3572 35.8579 7.67232 26.2237 7.67232H7.68936V25.6262ZM134.854 52.3584C128.031 52.3584 122.594 51.3432 119.544 49.4964C116.135 47.4358 114.477 44.2433 114.477 39.7375C114.477 28.2528 125.984 26.7516 145.044 24.2698C147.585 23.9371 150.189 23.598 152.931 23.2135C152.931 15.9084 148.955 13.3207 137.739 13.3207C128.454 13.3207 124.313 16.0963 124.313 22.3214H116.56C116.56 11.9167 124.479 5.7024 137.741 5.7024C153.523 5.7024 160.56 10.9253 160.56 22.6368V42.6686C160.56 48.0751 160.876 51.6542 160.88 51.691H153.886C153.886 51.6694 153.688 49.721 153.886 46.5718C151.696 50.0299 144.048 52.3562 134.858 52.3562L134.854 52.3584ZM152.929 29.9981C141.433 31.3373 133.338 32.4626 128.523 33.9228C124.054 35.275 122.233 36.9403 122.233 39.6684C122.233 45.2693 129.227 46.1052 133.392 46.1052C140.197 46.1052 144.786 45.2693 147.845 43.4765C151.267 41.472 152.931 38.1197 152.931 33.2381L152.929 29.9981Z" fill="white" style="fill:white;fill-opacity:1;"/></svg>