<svg width="322" height="63" viewBox="0 0 322 63" fill="none" xmlns="http://www.w3.org/2000/svg"><path d="M71.6707 13.5394H88.4562C100.639 13.5394 103.617 20.6053 103.617 26.5841C103.617 32.2911 100.368 39.6287 88.4562 39.6287H78.1683V60.0109H71.6707V13.5394ZM78.1683 33.9217H86.561C91.705 33.9217 96.5782 32.8346 96.5782 26.5841C96.5782 20.3335 91.4343 18.9747 86.561 18.9747H78.1683V33.9217Z" fill="white" style="fill:white;fill-opacity:1;"/><path d="M111.739 13.2669C114.175 13.2669 116.07 15.1692 116.07 17.6151C116.07 20.061 114.175 21.9633 111.739 21.9633C109.302 21.9633 107.407 20.061 107.136 17.8869C107.136 16.7998 107.678 15.7128 108.49 14.6257C109.573 13.8104 110.656 13.2669 111.739 13.2669ZM108.761 28.7574H114.717V59.7384H108.761V28.7574Z" fill="white" style="fill:white;fill-opacity:1;"/><path d="M121.756 28.7579H127.712V33.6496H127.983C130.149 30.1167 134.21 27.9426 138.271 27.9426C144.498 27.9426 149.642 31.4755 149.642 39.9002V59.7389H143.686V41.5307C143.686 35.8237 140.166 33.6496 136.376 33.6496C131.503 33.6496 127.442 36.9108 127.442 43.9766V60.0106H121.756V28.7579Z" fill="white" style="fill:white;fill-opacity:1;"/><path d="M160.743 46.4225C160.743 51.8578 165.887 55.3907 171.301 55.3907C174.821 55.3907 178.07 53.4884 179.965 50.7707L184.567 54.3037C181.319 58.6519 175.904 60.826 170.489 60.5542C160.472 60.5542 154.245 53.4884 154.245 44.2484C153.974 39.9002 155.599 35.8238 158.848 32.5626C161.826 29.5732 166.157 27.6709 170.489 27.9427C181.589 27.9427 185.921 36.3673 185.921 44.2484V46.4225H160.743ZM179.694 41.8026C179.423 36.6391 176.716 32.8344 170.489 32.8344C165.345 32.8344 161.014 36.6391 160.743 41.8026H179.694Z" fill="white" style="fill:white;fill-opacity:1;"/><path d="M213.265 37.1818C211.37 35.0077 208.392 33.6489 205.414 33.6489C198.916 33.6489 195.397 38.8124 195.397 44.5194C195.126 47.237 196.209 49.9547 198.104 51.857C199.999 53.7594 202.707 54.8464 205.414 54.8464C208.392 54.8464 211.099 53.7594 212.995 51.3135L217.326 55.3899C214.348 58.6511 209.746 60.2817 205.414 60.2817C201.082 60.5534 196.751 58.9228 193.502 55.6617C190.253 52.6723 188.629 48.3241 188.899 43.9759C188.629 39.6277 190.253 35.2795 193.502 32.2901C196.751 29.3007 201.082 27.3983 205.414 27.6701C210.017 27.6701 214.348 29.3007 217.597 32.5618L213.265 37.1818Z" fill="white" style="fill:white;fill-opacity:1;"/><path d="M235.193 28.2142C244.398 28.486 251.708 35.8236 251.437 44.7918C251.437 53.7599 243.857 60.8258 234.652 60.8258C225.447 60.8258 218.137 53.4882 218.137 44.52C218.137 40.1718 220.032 36.0953 223.01 32.8342C226.53 29.573 230.861 27.9425 235.193 28.2142ZM235.193 55.1188C241.691 55.1188 245.481 50.7705 245.481 44.2482C245.481 37.7259 241.42 33.3777 235.193 33.3777C228.695 33.3777 224.634 37.7259 224.634 44.2482C224.634 50.7705 228.966 55.1188 235.193 55.1188Z" fill="white" style="fill:white;fill-opacity:1;"/><path d="M257.124 28.7579H263.08V33.6496C265.246 30.1167 269.307 27.9426 273.639 27.9426C279.866 27.9426 285.009 31.4755 285.009 39.9002V59.7389H278.783V41.5307C278.783 35.8237 275.263 33.6496 271.473 33.6496C266.329 33.6496 262.539 36.9108 262.539 43.9766V60.0106H257.124V28.7579Z" fill="white" style="fill:white;fill-opacity:1;"/><path d="M296.109 46.4225C296.109 51.8578 301.253 55.3907 306.668 55.3907C310.188 55.3907 313.436 53.4884 315.332 50.7707L319.934 54.3037C316.685 58.6519 311.271 60.826 305.856 60.5542C295.839 60.5542 289.612 53.4884 289.612 44.2484C289.341 39.9002 290.966 35.8238 294.214 32.5626C297.192 29.5732 301.524 27.6709 305.856 27.9427C316.956 27.9427 321.288 36.3673 321.288 44.2484V46.4225H296.109ZM315.061 41.8026C314.79 36.6391 312.083 32.8344 305.856 32.8344C300.712 32.8344 296.38 36.6391 296.109 41.8026H315.061Z" fill="white" style="fill:white;fill-opacity:1;"/><path d="M32.1432 10.8219L33.7676 2.1255" stroke="white" style="stroke:white;stroke-opacity:1;" stroke-width="2.07533" stroke-linecap="square"/><path d="M39.7245 7.8327L34.0391 1.03862L26.4585 5.38683" stroke="white" style="stroke:white;stroke-opacity:1;" stroke-width="2.07533" stroke-linecap="square" stroke-linejoin="round"/><path d="M25.6463 48.053L27.2707 39.3565" stroke="white" style="stroke:white;stroke-opacity:1;" stroke-width="2.07533" stroke-linecap="square"/><path d="M32.9559 45.0634L27.2705 38.5411L19.69 42.8893" stroke="white" style="stroke:white;stroke-opacity:1;" stroke-width="2.07533" stroke-linecap="square" stroke-linejoin="round"/><path d="M28.8952 30.1166L30.5196 21.4202" stroke="white" style="stroke:white;stroke-opacity:1;" stroke-width="2.07533" stroke-linecap="square"/><path d="M36.2048 27.1271L30.5194 20.6047L22.9389 24.9529" stroke="white" style="stroke:white;stroke-opacity:1;" stroke-width="2.07533" stroke-linecap="square" stroke-linejoin="round"/><path d="M23.4802 62.9993C25.6461 62.9993 27.2705 61.3687 27.2705 59.4664C27.2705 57.564 25.6461 55.9335 23.4802 55.9335C21.3144 55.9335 19.69 57.564 19.69 59.4664C19.69 61.3687 21.5851 62.9993 23.4802 62.9993Z" fill="white" style="fill:white;fill-opacity:1;"/><path d="M12.9211 47.2373L6.15281 51.8573" stroke="white" style="stroke:white;stroke-opacity:1;" stroke-width="1.9698" stroke-linecap="square"/><path d="M13.4636 54.848L5.34156 52.4021L5.88302 44.2492" stroke="white" style="stroke:white;stroke-opacity:1;" stroke-width="1.9698" stroke-linecap="square" stroke-linejoin="round"/><path d="M37.8288 51.5859L42.702 58.38" stroke="white" style="stroke:white;stroke-opacity:1;" stroke-width="1.9698" stroke-linecap="square"/><path d="M34.8506 58.6521L43.2433 59.1956L45.6799 51.3145" stroke="white" style="stroke:white;stroke-opacity:1;" stroke-width="1.9698" stroke-linecap="square" stroke-linejoin="round"/><path d="M45.6794 37.9971L54.0721 39.3559" stroke="white" style="stroke:white;stroke-opacity:1;" stroke-width="2.0167" stroke-linecap="square"/><path d="M48.3878 45.3356L54.8854 39.9003L50.8244 32.5627" stroke="white" style="stroke:white;stroke-opacity:1;" stroke-width="2.0167" stroke-linecap="square" stroke-linejoin="round"/><path d="M43.2446 21.692L50.5544 17.6155" stroke="white" style="stroke:white;stroke-opacity:1;" stroke-width="2.0167" stroke-linecap="square"/><path d="M43.5144 14.0823L51.3657 17.3435L50.012 25.4964" stroke="white" style="stroke:white;stroke-opacity:1;" stroke-width="2.0167" stroke-linecap="square" stroke-linejoin="round"/><path d="M10.2127 32.0192L1.81994 30.6604" stroke="white" style="stroke:white;stroke-opacity:1;" stroke-width="2.0167" stroke-linecap="square"/><path d="M5.07067 37.7263L1.00967 30.3887L7.50727 24.9534" stroke="white" style="stroke:white;stroke-opacity:1;" stroke-width="2.0167" stroke-linecap="square" stroke-linejoin="round"/><path d="M18.3361 17.3437L12.6506 11.0931" stroke="white" style="stroke:white;stroke-opacity:1;" stroke-width="2.0167" stroke-linecap="square"/><path d="M20.5018 10.0051L12.1091 10.5487L10.4847 18.7015" stroke="white" style="stroke:white;stroke-opacity:1;" stroke-width="2.0167" stroke-linecap="square" stroke-linejoin="round"/></svg>