<svg width="280" height="66" viewBox="0 0 280 66" fill="none" xmlns="http://www.w3.org/2000/svg"><g clip-path="url(#a)"><mask id="b" style="mask-type:luminance" maskUnits="userSpaceOnUse" x="0" y="0" width="281" height="66"><path d="M280.003 0.000648499H0.00268555V65.6641H280.003V0.000648499Z" fill="white" style="fill:white;fill-opacity:1;"/></mask><g mask="url(#b)"><path d="M47.5755 0.000648499V5.7462H6.52696V51.9842H0.00268555V0.000648499H47.5755Z" fill="white" style="fill:white;fill-opacity:1;"/><path d="M47.5752 11.2186V16.9641H19.0315V52.2582H12.5072V11.2186H47.5752Z" fill="white" style="fill:white;fill-opacity:1;"/><path d="M47.5757 22.1625V28.1816H31.5368V52.2582H24.7407V22.1625H47.5757Z" fill="white" style="fill:white;fill-opacity:1;"/><path d="M66.3333 21.6151C74.2168 21.6151 80.7411 26.8135 80.7411 36.3894C80.7411 36.9366 80.7411 37.4838 80.7411 38.5782H57.0906C57.3624 43.503 61.4401 46.7861 66.3333 46.7861C70.411 46.7861 73.4012 44.8709 74.7605 42.135L79.9255 45.6917C77.2071 50.0693 72.5857 52.5317 66.3333 52.5317C57.3624 52.5317 50.8381 45.9653 50.8381 36.9366C50.5663 28.4551 57.0906 21.6151 66.3333 21.6151ZM57.3624 33.927H73.9449C73.1294 29.5495 69.8673 27.3607 65.7896 27.3607C62.2556 27.0871 58.4498 29.5495 57.3624 33.927Z" fill="white" style="fill:white;fill-opacity:1;"/><path d="M87.264 22.1623H93.7883V26.2663C95.4194 23.8039 99.2252 21.6151 103.303 21.6151C111.458 21.6151 117.711 28.7287 117.711 37.2102C117.711 45.6917 111.458 52.8053 103.303 52.8053C98.9534 52.8053 95.4194 50.6165 93.7883 48.1541V64.57H87.264V22.1623ZM102.487 27.6343C97.0505 27.6343 93.5165 31.7383 93.5165 37.2102C93.5165 42.6822 97.0505 46.7861 102.487 46.7861C107.924 46.7861 111.458 42.6822 111.458 37.2102C111.458 31.7383 107.652 27.6343 102.487 27.6343Z" fill="white" style="fill:white;fill-opacity:1;"/><path d="M131.304 7.38818H124.78V52.2582H131.304V7.38818Z" fill="white" style="fill:white;fill-opacity:1;"/><path d="M143.537 15.8694C141.091 15.8694 139.188 13.9542 139.188 11.4919C139.188 9.02947 141.091 7.11429 143.537 7.11429C145.984 7.11429 147.887 9.02947 147.887 11.4919C147.887 13.6806 145.984 15.8694 143.537 15.8694ZM140.275 22.1622H146.799V51.9843H140.275V22.1622Z" fill="white" style="fill:white;fill-opacity:1;"/><path d="M169.362 52.8053C160.392 52.8053 153.595 45.9653 153.595 37.2102C153.595 28.4551 160.392 21.6151 169.362 21.6151C175.615 21.6151 180.78 24.8983 183.227 29.8231L177.518 32.8326C176.159 29.8231 173.168 27.6343 169.362 27.6343C163.926 27.6343 160.392 31.7383 160.392 37.2102C160.392 42.6822 164.197 46.7861 169.362 46.7861C173.168 46.7861 176.159 44.5973 177.518 41.5878L183.227 44.5973C180.508 49.5221 175.343 52.8053 169.362 52.8053Z" fill="white" style="fill:white;fill-opacity:1;"/><path d="M201.44 21.6151C205.789 21.6151 209.323 23.8039 210.954 26.2663V22.1623H217.478V51.9845H210.954V47.8805C209.323 50.3429 205.789 52.5317 201.44 52.5317C193.284 52.5317 187.032 45.4181 187.032 36.9366C187.032 28.4551 193.284 21.6151 201.44 21.6151ZM202.799 27.6343C197.362 27.6343 193.828 31.7383 193.828 37.2102C193.828 42.6822 197.362 46.7861 202.799 46.7861C208.236 46.7861 211.77 42.6822 211.77 37.2102C211.77 31.7383 207.964 27.6343 202.799 27.6343Z" fill="white" style="fill:white;fill-opacity:1;"/><path d="M228.898 52.258V28.1814H222.645V22.1623H228.898V13.9543H235.422V22.1623H246.839V27.9078H235.422V45.9653H246.839V51.9844H228.898V52.258Z" fill="white" style="fill:white;fill-opacity:1;"/><path d="M265.595 21.6151C273.479 21.6151 280.003 26.8135 280.003 36.3894C280.003 36.9366 280.003 37.4838 280.003 38.5782H256.353C256.625 43.503 260.702 46.7861 265.595 46.7861C269.673 46.7861 272.663 44.8709 274.023 42.135L279.188 45.6917C276.469 50.0693 271.848 52.5317 265.595 52.5317C256.624 52.5317 250.1 45.9653 250.1 36.9366C250.1 28.4551 256.624 21.6151 265.595 21.6151ZM256.624 33.927H273.207C272.391 29.5495 269.129 27.3607 265.052 27.3607C261.518 27.0871 257.712 29.5495 256.624 33.927Z" fill="white" style="fill:white;fill-opacity:1;"/></g></g><defs><clipPath id="a"><rect width="280" height="65.6635" fill="white" style="fill:white;fill-opacity:1;"/></clipPath></defs></svg>