<svg width="300" height="63" viewBox="0 0 300 63" fill="none" xmlns="http://www.w3.org/2000/svg"><g clip-path="url(#a)"><path d="M0 1.05293H11.3966L12.4668 6.93681C14.6957 2.28278 19.5007 0 24.5669 0C27.0589 0 29.5596 0.614927 31.2491 1.32263L28.5736 14.9266C26.5475 13.7454 24.2386 13.1369 21.8935 13.1659C17.2676 13.1659 13.5219 16.247 13.5219 23.0911V44.9544H0V1.05293ZM35.9376 28.606V0.778908H49.6602V26.0643C49.6602 31.1585 52.6377 33.8793 56.9702 33.8793C61.3934 33.8793 65.1801 30.5435 65.1801 23.1687V0.774592H78.9026V44.6782H67.4413L65.9093 38.8893C63.7409 42.3976 58.3253 45.7312 51.6495 45.7312C42.6953 45.7312 35.9376 40.104 35.9376 28.6125V28.6081V28.606ZM85.9516 1.05293H97.2727L98.7896 6.84188C100.93 3.33571 106.184 0.00215843 112.79 0.00215843C121.529 0.00215843 128.125 5.5365 128.125 17.0324V44.9544H114.566V19.8438C114.566 14.6676 111.884 11.8562 107.429 11.8562C103.329 11.8562 99.493 15.1898 99.493 22.7372V44.9544H85.9344V1.05293H85.9516ZM131.249 0.778908H144.808L152.819 30.7291L159.948 11.0299L156.433 0.774592H169.897L178.616 30.7269L186.357 0.774592H199.998L185.559 44.9544H171.649L165.672 27.374L159.508 44.9544H145.679L131.249 0.774592V0.778908ZM200.783 22.8645C200.783 7.7675 211.761 0 221.868 0C228.073 0 232.503 2.43813 234.71 4.9712L235.946 1.04645H248.439V44.6847H236.568L234.71 40.4169C232.85 42.5918 228.869 45.7333 221.24 45.7333C210.35 45.7333 200.783 36.8266 200.783 22.8688V22.8645ZM235.247 22.8645C235.247 15.7982 230.643 11.4398 224.789 11.4398C218.856 11.4398 214.333 15.8932 214.333 22.8645C214.333 29.838 218.856 34.3043 224.789 34.3043C230.643 34.2935 235.247 29.9286 235.247 22.8645ZM262.623 62.7808L270.134 42.676L252.342 0.778908H266.917L276.844 28.1464L285.781 0.774592H300L276.488 62.7808H262.623Z" fill="white" style="fill:white;fill-opacity:1;"/></g><defs><clipPath id="a"><rect width="300" height="62.78" fill="white" style="fill:white;fill-opacity:1;"/></clipPath></defs></svg>