<svg width="200" height="66" viewBox="0 0 200 66" fill="none" xmlns="http://www.w3.org/2000/svg"><path d="M144.173 65.1724C143.341 65.1657 142.546 64.8292 141.961 64.2367C141.377 63.6443 141.052 62.8443 141.057 62.0124V3.07198C141.079 2.24855 141.418 1.46758 141.997 0.892455C142.576 0.320655 143.357 0 144.171 0C144.984 0 145.765 0.320655 146.344 0.892455C146.925 1.46545 147.263 2.25068 147.284 3.07198V62.0124C147.284 63.7569 145.89 65.1724 144.173 65.1724ZM197.417 56.9021C197.752 56.5049 197.983 56.0317 198.092 55.524C198.201 55.0164 198.183 54.4898 198.041 53.9904C197.902 53.4917 197.643 53.0348 197.286 52.6598C196.895 52.2514 196.401 51.9574 195.855 51.8093C195.31 51.6612 194.735 51.6647 194.191 51.8194C193.597 51.9892 193.069 52.3351 192.67 52.8126C189.453 56.6538 184.637 58.8567 179.459 58.8567C170.872 58.8567 163.886 51.7748 163.886 43.0673C163.886 34.362 170.872 27.2801 179.457 27.2801C186.43 27.2801 192.258 32.365 193.523 39.0712H174.472C173.748 39.0672 173.045 39.3181 172.487 39.78C171.928 40.2493 171.546 40.8962 171.405 41.6129C171.265 42.3297 171.374 43.073 171.715 43.7189C171.98 44.2206 172.377 44.6408 172.862 44.9342C173.348 45.2277 173.904 45.3835 174.472 45.3848H196.889C198.608 45.3848 200 43.9714 200 42.227V41.8046C200 30.3128 190.785 20.9644 179.453 20.9644C167.437 20.9644 157.657 30.8794 157.657 43.0695C157.657 55.2574 167.437 65.1724 179.457 65.1724C186.469 65.1724 193.016 62.1567 197.417 56.9021ZM130.68 62.0124V41.8046C130.68 30.3128 121.461 20.9644 110.132 20.9644C98.112 20.9644 88.337 30.8773 88.337 43.0673C88.337 55.2595 98.1141 65.1724 110.128 65.1724C110.545 65.1836 110.959 65.11 111.347 64.956C111.734 64.8021 112.086 64.571 112.382 64.2768C112.682 63.9814 112.919 63.6291 113.081 63.2407C113.243 62.8522 113.325 62.4353 113.324 62.0145C113.324 61.594 113.24 61.1777 113.078 60.7895C112.917 60.4013 112.68 60.0488 112.382 59.7522C112.085 59.4596 111.733 59.2295 111.346 59.0756C110.959 58.9218 110.545 58.8473 110.128 58.8567C101.546 58.8567 94.5636 51.7748 94.5636 43.0673C94.5636 34.362 101.546 27.2801 110.13 27.2801C112.015 27.2845 113.881 27.6633 115.619 28.3945C117.357 29.1256 118.932 30.1946 120.253 31.5394C122.945 34.2789 124.453 37.9661 124.453 41.8068V62.0145C124.474 62.838 124.812 63.6211 125.393 64.1941C125.972 64.7659 126.753 65.0865 127.566 65.0865C128.38 65.0865 129.161 64.7659 129.739 64.1941C130.321 63.6211 130.658 62.8358 130.68 62.0124ZM36.4358 52.5409C36.4358 49.4595 35.3217 45.2554 30.0013 42.732C26.8137 41.2146 22.8069 40.5907 18.9339 39.9901C9.86559 38.5788 6.64617 37.401 6.64617 33.5959C6.64617 29.4491 12.3125 27.2801 17.9152 27.2801C21.4423 27.2801 26.5144 28.0017 30.6379 31.4397C30.9534 31.6944 31.316 31.8843 31.705 31.9987C32.0939 32.1131 32.5016 32.1497 32.9047 32.1063C33.3078 32.0629 33.6984 31.9405 34.0542 31.746C34.4099 31.5515 34.7238 31.2888 34.9779 30.9728C35.4972 30.3312 35.7476 29.5132 35.6764 28.6908C35.6051 27.8684 35.2178 27.1056 34.5959 26.5628C29.0484 21.9343 22.461 20.9623 17.9152 20.9623C5.8949 20.9623 0.421682 27.5115 0.421682 33.5938C0.421682 36.6943 1.54009 40.9281 6.87749 43.4706C10.0884 44.9986 14.1037 45.6246 17.9958 46.2295C27.011 47.6322 30.2092 48.7973 30.2092 52.5367C30.2092 56.3143 25.7632 58.8545 19.1461 58.8545C12.3741 58.8545 7.21068 56.0702 4.73829 54.4085C4.05246 53.9814 3.22616 53.8411 2.4378 54.018C1.65045 54.1942 0.960728 54.6759 0.51506 55.3571C0.0712477 56.041 -0.0944283 56.8687 0.0519353 57.6707C0.198299 58.4728 0.645636 59.1885 1.30241 59.6716C6.57614 63.22 12.9195 65.1724 19.144 65.1724C31.0878 65.1724 36.4316 58.827 36.4316 52.5409H36.4358ZM81.5798 55.8516C82.0247 55.1531 82.1811 54.3091 82.016 53.4976C81.8509 52.686 81.3773 51.9703 80.6949 51.5011C80.3579 51.2727 79.979 51.1135 79.5801 51.0327C79.1813 50.9518 78.7703 50.9509 78.371 51.0299C77.5646 51.1912 76.8558 51.6666 76.3931 52.3542C75.0943 54.3484 73.3209 55.9891 71.2319 57.1292C69.1537 58.2619 66.8245 58.8552 64.4577 58.8545C55.8754 58.8545 48.8912 51.7748 48.8912 43.0695C48.8912 34.3641 55.8733 27.2801 64.4577 27.2801C66.8219 27.2801 69.15 27.8722 71.234 29.0055C73.3223 30.1458 75.095 31.7865 76.3931 33.7805C76.86 34.4596 77.5667 34.9223 78.3668 35.0772C79.1678 35.2322 79.9976 35.0627 80.6736 34.6061C81.3536 34.1424 81.8277 33.4336 81.9967 32.6281C82.1656 31.8226 82.0162 30.983 81.5798 30.2852C79.7164 27.4249 77.1722 25.0718 74.1754 23.4368C71.194 21.8126 67.8528 20.9625 64.4577 20.9644C52.4417 20.9644 42.6625 30.8773 42.6625 43.0695C42.6625 55.2574 52.4438 65.1724 64.4598 65.1724C67.8512 65.1724 71.1894 64.3235 74.1775 62.6979C77.1747 61.0636 79.7196 58.7112 81.5841 55.8516H81.5798Z" fill="white" style="fill:white;fill-opacity:1;"/></svg>