<svg width="271" height="66" viewBox="0 0 271 66" fill="none" xmlns="http://www.w3.org/2000/svg"><g clip-path="url(#a)"><g clip-path="url(#b)"><path fill-rule="evenodd" clip-rule="evenodd" d="M45.112 0C56.4368 0 65.6174 14.7746 65.6174 33H41.0109C41.0109 51.2254 31.8303 66 20.5054 66C9.1806 66 0 51.2254 0 33H24.6065C24.6065 14.7746 33.7871 0 45.112 0ZM247.962 63.7194C243.622 63.7194 239.738 62.7428 236.311 60.7895C232.884 58.8363 230.2 56.1649 228.257 52.7754C226.316 49.386 225.345 45.5656 225.345 41.3144C225.345 37.0632 226.316 33.2429 228.257 29.8534C230.2 26.4639 232.884 23.7925 236.311 21.8393C239.738 19.8861 243.622 18.9094 247.962 18.9094C252.246 18.9094 256.102 19.8861 259.529 21.8393C262.955 23.7925 265.64 26.4639 267.582 29.8534C269.524 33.2429 270.495 37.0632 270.495 41.3144C270.495 45.5656 269.524 49.386 267.582 52.7754C265.64 56.1649 262.955 58.8363 259.529 60.7895C256.102 62.7428 252.246 63.7194 247.962 63.7194ZM247.962 54.585C250.304 54.585 252.361 54.0393 254.131 52.9478C255.958 51.7988 257.358 50.2189 258.329 48.2083C259.357 46.1976 259.871 43.8996 259.871 41.3144C259.871 38.7292 259.357 36.4313 258.329 34.4206C257.358 32.4099 255.958 30.8588 254.131 29.7673C252.304 28.6183 250.247 28.0437 247.962 28.0437C245.62 28.0437 243.536 28.6183 241.708 29.7673C239.881 30.8588 238.452 32.4099 237.425 34.4206C236.454 36.4313 235.968 38.7292 235.968 41.3144C235.968 43.8996 236.454 46.1976 237.425 48.2083C238.452 50.2189 239.881 51.7988 241.708 52.9478C243.536 54.0393 245.62 54.585 247.962 54.585ZM191.68 19.5988H181.143V63.03H191.68V39.3324C191.68 37.2068 192.109 35.311 192.965 33.645C193.822 31.979 194.993 30.6864 196.478 29.7673C198.02 28.7906 199.734 28.3023 201.619 28.3023C204.303 28.3023 206.473 29.2502 208.13 31.146C209.843 32.9844 210.7 35.3972 210.7 38.3845V63.03H221.152V36.144C221.152 32.7545 220.495 29.7673 219.181 27.182C217.868 24.5394 215.983 22.5 213.527 21.0638C211.071 19.6275 208.272 18.9094 205.131 18.9094C202.047 18.9094 199.305 19.5701 196.907 20.8914C194.565 22.1553 192.823 23.9649 191.68 26.3203V19.5988ZM173.866 63.0299H163.414V56.3084C162.214 58.6638 160.443 60.5022 158.102 61.8235C155.76 63.0874 153.047 63.7194 149.963 63.7194C146.764 63.7194 143.937 63.0012 141.481 61.565C139.082 60.1288 137.198 58.1181 135.827 55.5329C134.513 52.8903 133.856 49.8742 133.856 46.4847V19.5988H144.394V44.2442C144.394 47.2316 145.222 49.6731 146.879 51.569C148.535 53.4073 150.705 54.3265 153.39 54.3265C155.332 54.3265 157.045 53.8669 158.53 52.9477C160.072 51.9711 161.272 50.6498 162.128 48.9837C162.985 47.3178 163.414 45.4219 163.414 43.2963V19.5988H173.866V63.0299ZM95.3303 61.1342C98.7575 62.8577 102.727 63.7194 107.239 63.7194C111.637 63.7194 115.521 63.0013 118.891 61.5651C122.26 60.0714 124.888 57.9745 126.773 55.2744C128.657 52.5743 129.6 49.386 129.6 45.7092C129.6 41.5155 128.657 38.2409 126.773 35.8855C124.888 33.4726 122.632 31.7492 120.004 30.7151C117.434 29.681 114.064 28.6757 109.895 27.699C106.868 27.0096 104.498 26.3777 102.784 25.8032C101.128 25.1713 99.728 24.3096 98.5863 23.2181C97.5009 22.0691 96.9583 20.6041 96.9583 18.8232C96.9583 16.6976 97.8152 15.0029 99.5285 13.739C101.242 12.4751 103.584 11.8432 106.554 11.8432C109.695 11.8432 112.237 12.6475 114.179 14.2561C116.178 15.8646 117.291 17.9902 117.52 20.6329H128.315C128.144 16.8987 127.115 13.6241 125.23 10.8092C123.403 7.99412 120.861 5.83981 117.605 4.34615C114.407 2.79503 110.723 2.01947 106.554 2.01947C102.555 2.01947 98.9859 2.73759 95.8447 4.1738C92.703 5.55257 90.2469 7.53456 88.4766 10.1197C86.7633 12.6475 85.9063 15.5486 85.9063 18.8232C85.9063 22.9021 86.8204 26.1479 88.6478 28.5608C90.5324 30.9736 92.7601 32.7258 95.3303 33.8173C97.9576 34.9089 101.328 35.9717 105.44 37.0057C108.353 37.7526 110.638 38.442 112.294 39.0739C114.007 39.7058 115.407 40.5676 116.492 41.6591C117.577 42.6932 118.119 44.1007 118.119 45.8816C118.119 48.4668 117.12 50.4487 115.121 51.8275C113.179 53.2062 110.552 53.8957 107.239 53.8957C103.641 53.8957 100.756 52.8903 98.5863 50.8796C96.4727 48.8689 95.2732 46.1688 94.9878 42.7794H84.1071C84.2784 46.9731 85.3355 50.6498 87.2771 53.8095C89.2765 56.9692 91.9609 59.4107 95.3303 61.1342Z" fill="white" style="fill:white;fill-opacity:1;"/></g></g><defs><clipPath id="a"><rect width="271" height="66" fill="white" style="fill:white;fill-opacity:1;"/></clipPath><clipPath id="b"><rect width="271" height="66" fill="white" style="fill:white;fill-opacity:1;"/></clipPath></defs></svg>